<?xml version="1.0" standalone="no"?>
<!DOCTYPE svg PUBLIC "-//W3C//DTD SVG 20010904//EN"
 "http://www.w3.org/TR/2001/REC-SVG-20010904/DTD/svg10.dtd">
<svg version="1.0" xmlns="http://www.w3.org/2000/svg"
 width="500.000000pt" height="500.000000pt" viewBox="0 0 500.000000 500.000000"
 preserveAspectRatio="xMidYMid meet">

<g transform="translate(0.000000,500.000000) scale(0.100000,-0.100000)"
fill="#000000" stroke="none">
<path d="M0 2500 l0 -2500 2500 0 2500 0 0 2500 0 2500 -2500 0 -2500 0 0
-2500z m910 1305 c201 -201 372 -365 381 -365 9 0 35 25 58 55 246 326 595
547 1004 637 90 20 130 23 332 22 200 0 243 -3 331 -22 1037 -226 1609 -1312
1200 -2278 -83 -197 -202 -370 -361 -529 -560 -557 -1445 -641 -2105 -200
-359 240 -608 614 -700 1050 -31 146 -38 403 -16 554 l17 115 -460 460 c-254
254 -461 465 -461 471 0 15 83 95 99 95 9 0 203 -188 433 -417 335 -334 421
-416 433 -408 9 6 38 62 65 125 l50 115 -385 385 c-244 244 -385 392 -385 405
0 23 68 95 90 95 8 0 179 -164 380 -365z"/>
<path d="M2420 3990 c-358 -64 -693 -264 -924 -551 -110 -138 -140 -79 247
-467 185 -186 337 -342 337 -347 0 -13 -82 -95 -94 -95 -6 0 -150 140 -322
311 -224 224 -317 310 -330 307 -23 -4 -53 -63 -90 -176 l-27 -83 276 -277
c152 -153 277 -284 277 -293 0 -18 -70 -89 -88 -89 -7 0 -113 99 -236 220
-123 121 -230 220 -238 220 -37 0 -41 -24 -35 -213 6 -196 26 -312 82 -467 70
-192 205 -409 329 -529 44 -43 47 -44 72 -31 43 23 157 152 187 212 15 30 41
104 58 164 55 196 134 322 270 431 88 69 151 99 311 148 163 50 228 86 316
180 84 89 112 140 157 294 60 206 133 321 272 432 90 71 168 109 298 144 156
43 235 83 235 120 0 32 -256 227 -383 291 -138 71 -337 133 -490 153 -122 17
-346 12 -467 -9z m453 -330 c80 -55 107 -152 67 -235 -57 -118 -221 -139 -309
-40 -77 88 -44 237 63 286 54 26 132 21 179 -11z m-672 -123 c155 -105 85
-337 -102 -337 -104 0 -179 75 -179 179 0 68 23 116 73 152 35 25 49 29 107
29 53 0 74 -5 101 -23z m366 -408 c34 -13 80 -55 99 -91 19 -37 18 -122 -3
-165 -34 -73 -130 -115 -212 -93 -123 33 -176 175 -106 282 44 67 144 97 222
67z"/>
</g>
</svg>
